<svg id="allcases" xmlns="http://www.w3.org/2000/svg" width="22" height="22" viewBox="0 0 22 22">
  <path id="Path_16" data-name="Path 16" d="M227.644,224.094h11.688a.644.644,0,0,0,.644-.644v-1.375a1.936,1.936,0,0,0-1.289-1.823v-.839a1.852,1.852,0,0,0-1.851-1.85h-6.7a1.852,1.852,0,0,0-1.851,1.85v.839A1.936,1.936,0,0,0,227,222.075v1.375A.644.644,0,0,0,227.644,224.094Zm2.5-5.242h6.7a.562.562,0,0,1,.561.561v.728h-7.821v-.728A.562.562,0,0,1,230.14,218.852Zm-1.851,3.223a.645.645,0,0,1,.644-.644h9.11a.645.645,0,0,1,.645.644v.731h-10.4Z" transform="translate(-227 -202.094)" fill="#fff"/>
  <path id="Path_17" data-name="Path 17" d="M239.789,194.419a1.933,1.933,0,0,0,3.464-1.392,7.6,7.6,0,0,0,1.6-.456l6.035,8.016a1.934,1.934,0,0,0,3.09-2.326l-6.035-8.016a7.584,7.584,0,0,0,.88-1.41,1.933,1.933,0,0,0,2.3-2.945l-3.1-4.12a1.933,1.933,0,0,0-3.464,1.392,7.59,7.59,0,0,0-5.569,4.192,1.934,1.934,0,0,0-2.3,2.945Zm7.257-3.221.861,1.143-1.03.775-.861-1.143A7.6,7.6,0,0,0,247.046,191.2Zm5.773,8.74a.645.645,0,0,1-.9-.127l-4.265-5.664,1.03-.775,4.264,5.664A.645.645,0,0,1,252.819,199.938Zm-6.736-17.519a.645.645,0,0,1,.9.127l3.1,4.12a.645.645,0,0,1-1.03.776l-3.1-4.12A.645.645,0,0,1,246.083,182.419Zm-.943,1.962,2.673,3.551a6.313,6.313,0,0,1-5.149,3.877l-2.673-3.551A6.308,6.308,0,0,1,245.14,184.381Zm-7.3,4.241a.644.644,0,0,1,.9.127l3.1,4.12h0a.644.644,0,1,1-1.03.775l-3.1-4.12A.644.644,0,0,1,237.845,188.622Z" transform="translate(-232.364 -181)" fill="#fff"/>
</svg>
