<?xml version="1.0" encoding="utf-8"?>
<!-- Generator: Adobe Illustrator 23.0.1, SVG Export Plug-In . SVG Version: 6.00 Build 0)  -->
<svg version="1.1" id="Layer_1" xmlns="http://www.w3.org/2000/svg" xmlns:xlink="http://www.w3.org/1999/xlink" x="0px" y="0px"
	 viewBox="0 0 23.5 15.3" style="enable-background:new 0 0 23.5 15.3;" xml:space="preserve">
<style type="text/css">
	.st0{fill:#FFFFFF;}
</style>
<g id="dashboard" transform="translate(0.75 0.75)">
	<g id="Path_3">
		<path class="st0" d="M0,12.4L0,12.4c-0.4,0-0.8-0.3-0.8-0.8c0-6.9,5.6-12.4,12.4-12.4c4.3,0,8.2,2.1,10.5,5.7
			c0.2,0.3,0.1,0.8-0.2,1c-0.4,0.2-0.8,0.1-1-0.2c-2-3.2-5.5-5-9.2-5c-6,0-10.9,4.9-10.9,10.9C0.7,12.1,0.4,12.4,0,12.4z"/>
	</g>
	<g id="Path_4">
		<path class="st0" d="M6,12.9c-0.4,0-0.8-0.3-0.8-0.8c0-4.2,3.4-7.6,7.6-7.6C15,4.5,17,5.4,18.4,7c0.1,0.1,0.2,0.2,0.3,0.4
			c0.3,0.3,0.2,0.8-0.1,1.1c-0.3,0.3-0.8,0.2-1.1-0.1c-0.1-0.1-0.2-0.2-0.2-0.3C16.2,6.7,14.5,6,12.8,6c-3.4,0-6.1,2.7-6.1,6.1
			C6.8,12.5,6.4,12.9,6,12.9z"/>
	</g>
	<g id="Path_5">
		<path class="st0" d="M15.3,13l-1-1.2l3.9-3.3l-4.7,1.7L13,8.9l8.7-3.1c0.3-0.1,0.7,0,0.9,0.3c0.2,0.3,0.1,0.7-0.2,0.9L15.3,13z"/>
	</g>
	<g id="Ellipse_1">
		<path class="st0" d="M12.8,14.5c-1.6,0-2.8-1.3-2.8-2.8s1.3-2.8,2.8-2.8s2.8,1.3,2.8,2.8S14.4,14.5,12.8,14.5z M12.8,10.3
			c-0.7,0-1.3,0.6-1.3,1.3s0.6,1.3,1.3,1.3s1.3-0.6,1.3-1.3S13.6,10.3,12.8,10.3z"/>
	</g>
	<g id="Path_6">
		<path class="st0" d="M20.2,7.2c-0.2,0-0.4-0.1-0.6-0.3c-0.1-0.1-0.2-0.3-0.4-0.4c-1.6-1.8-4-2.8-6.4-2.8c-0.4,0-0.8-0.3-0.8-0.8
			s0.3-0.8,0.8-0.8c2.9,0,5.6,1.2,7.5,3.3c0.1,0.2,0.3,0.3,0.4,0.5C21.1,6.3,21,6.8,20.7,7C20.6,7.2,20.4,7.2,20.2,7.2z"/>
	</g>
</g>
</svg>
