<svg xmlns="http://www.w3.org/2000/svg" width="21.449" height="15.749" viewBox="0 0 21.449 15.749">
  <g id="iconmessage" transform="translate(0.75 0.75)">
    <path id="Rectangle_2" data-name="Rectangle 2" d="M1.3,0h17.34a1.3,1.3,0,0,1,1.3,1.3v11.64a1.306,1.306,0,0,1-1.306,1.306H1.3a1.3,1.3,0,0,1-1.3-1.3V1.3A1.3,1.3,0,0,1,1.3,0Z" fill="none" stroke="#807888" stroke-miterlimit="10" stroke-width="1.5"/>
    <path id="Path_4" data-name="Path 4" d="M294.347,134.764l9.414,7.4a.958.958,0,0,0,1.121,0l9.414-7.4" transform="translate(-294.347 -134.051)" fill="none" stroke="#807888" stroke-miterlimit="10" stroke-width="1.5"/>
    <line id="Line_1" data-name="Line 1" x2="7.837" y2="7.837" transform="translate(12.112 6.412)" fill="none" stroke="#807888" stroke-miterlimit="10" stroke-width="1.5"/>
    <line id="Line_2" data-name="Line 2" x1="7.837" y2="7.837" transform="translate(0 6.412)" fill="none" stroke="#807888" stroke-miterlimit="10" stroke-width="1.5"/>
  </g>
</svg>
