<svg xmlns="http://www.w3.org/2000/svg" width="14.814" height="17.079" viewBox="0 0 14.814 17.079">
  <g id="iconbell" transform="translate(0.763 0.753)">
    <path id="Path_1" data-name="Path 1" d="M9.507,1.7A.821.821,0,0,0,8.645,1l-.278.028a.821.821,0,0,0-.7.862" transform="translate(-3.238 -1)" fill="none" stroke="#807888" stroke-linecap="square" stroke-linejoin="round" stroke-miterlimit="10" stroke-width="1.5"/>
    <path id="Path_2" data-name="Path 2" d="M12.053,10.785,11.691,7.92A4.664,4.664,0,1,0,2.43,9.033L2.792,11.9l-.222.028a1.794,1.794,0,1,0,.445,3.56l9.706-1.168a1.794,1.794,0,1,0-.445-3.56Z" transform="translate(-1 -1.939)" fill="none" stroke="#807888" stroke-linecap="square" stroke-linejoin="round" stroke-miterlimit="10" stroke-width="1.5"/>
    <path id="Path_3" data-name="Path 3" d="M9.392,22.014a1.613,1.613,0,1,1-3.226,0" transform="translate(-2.733 -8.051)" fill="none" stroke="#807888" stroke-linecap="square" stroke-linejoin="round" stroke-miterlimit="10" stroke-width="1.5"/>
  </g>
</svg>
