<?xml version="1.0" encoding="utf-8"?>
<!-- Generator: Adobe Illustrator 23.0.1, SVG Export Plug-In . SVG Version: 6.00 Build 0)  -->
<svg version="1.1" id="Capa_1" xmlns="http://www.w3.org/2000/svg" xmlns:xlink="http://www.w3.org/1999/xlink" x="0px" y="0px"
	 viewBox="0 0 516 479" style="enable-background:new 0 0 516 479;" xml:space="preserve">
<style type="text/css">
	.st0{fill:#FFFFFF;}
</style>
<g id="Path_9868">
	<path class="st0" d="M343.2,193.7c-0.8,0-1.7-0.1-2.5-0.3c-5.3-1.4-8.5-6.9-7.1-12.2c11.3-42.9,1.2-82.7-28.5-112
		c-34.7-34.3-89.7-48.8-136.8-35.9c-40.4,11-68.8,40.8-80.1,83.8c-1.4,5.3-6.9,8.5-12.2,7.1c-5.3-1.4-8.5-6.9-7.1-12.2
		c13.2-50.2,46.6-85,94.2-98c53.8-14.7,116.6,1.7,156.2,40.9c34.9,34.6,46.9,81.2,33.7,131.3C351.7,190.7,347.6,193.7,343.2,193.7z"
		/>
</g>
<g id="Path_9869">
	<path class="st0" d="M294.3,207.2c-0.5,0-1,0-1.5-0.1c-5.5-0.8-9.2-5.9-8.4-11.4c3.4-22.2,2.9-42.5-1.5-60.1l-0.2-0.9
		c-4.7-31.7-28.3-44.7-42-49.6c-29-10.5-64.4-4.4-86.3,14.9c-13.3,13.3-26.4,29.2-39.1,47.3c-15.1,22.6-41.8,35-71.3,33
		c-5.5-0.4-9.7-5.1-9.3-10.6c0.4-5.5,5.1-9.7,10.6-9.3c22.3,1.5,42.3-7.6,53.4-24.2l0.1-0.2c13.4-19.1,27.4-36,41.6-50.2l0.4-0.4
		c27.5-24.5,70.4-32.1,106.6-19c30.2,10.9,50.1,34.6,54.9,65c5,20.2,5.6,42.9,1.8,67.6C303.4,203.7,299.1,207.2,294.3,207.2z"/>
</g>
<g id="Path_9870">
	<path class="st0" d="M64.9,325.3c-4.4,0-8.5-3-9.7-7.4c-1.4-5.3,1.8-10.8,7.1-12.2c50.4-13.3,86.8-27.1,114.7-43.4
		c32.4-19,52.8-41.3,62.2-68.3l0-0.1c5.4-14.8,3.2-33.2-5.6-48.2c-11-13.3-28.3-18.4-44.3-13.1c-7,2.3-10.3,8.1-15.4,18.2
		c-1.9,3.7-3.8,7.5-6.2,11.3c-8.6,13.7-19.4,25.1-33,34.9l-0.3,0.2c-26.4,17.6-56.3,28.4-88.8,32c-5.5,0.6-10.4-3.3-11-8.8
		c-0.6-5.5,3.3-10.4,8.8-11c29.2-3.2,56.1-12.9,79.8-28.7c11.6-8.3,20.3-17.5,27.6-29.1c2-3.1,3.7-6.5,5.4-9.9
		c5.5-10.8,11.8-23,26.9-28.1c24.2-8.1,50.4-0.2,66.6,20.1l0.4,0.5l0.3,0.6c12.1,20.2,15,45.4,7.6,65.9
		c-11.1,31.6-34.3,57.4-71,78.8c-29.5,17.3-67.5,31.7-119.7,45.5C66.6,325.2,65.7,325.3,64.9,325.3z"/>
</g>
<g id="Path_9871">
	<path class="st0" d="M56.4,276.4c-4.8,0-9.1-3.5-9.9-8.4c-0.9-5.5,2.9-10.6,8.3-11.4c79.4-12.6,126.4-46.2,143.8-102.7
		c1.6-5.3,7.2-8.2,12.5-6.6c5.3,1.6,8.2,7.2,6.6,12.5C198.2,223.3,144.5,262.5,58,276.2C57.5,276.3,57,276.4,56.4,276.4z"/>
</g>
<g id="Path_9872">
	<path class="st0" d="M69.9,362.4c-5,0-9.4-3.8-9.9-8.9c-0.6-5.5,3.4-10.4,8.9-11c53.5-5.7,89.7-20,117.3-46.2
		c4-3.8,10.3-3.6,14.1,0.4c3.8,4,3.6,10.3-0.4,14.1c-39.7,37.7-89.8,47.4-128.9,51.6C70.7,362.3,70.3,362.4,69.9,362.4z"/>
</g>
<g id="Path_9873">
	<path class="st0" d="M100.3,404.5c-5.5,0-10-4.5-10-10s4.5-10,10-10c32.6,0,63.7-14.1,85.2-38.7c3.6-4.2,10-4.6,14.1-0.9
		s4.6,10,0.9,14.1C175.2,387.9,138.7,404.5,100.3,404.5z"/>
</g>
<g id="Path_9874">
	<path class="st0" d="M125.6,440c-4.1,0-8-2.6-9.4-6.7c-1.8-5.2,0.9-10.9,6.1-12.8c26.6-9.4,53.3-20.8,81.5-34.9
		c4.9-2.5,10.9-0.5,13.4,4.5c2.5,4.9,0.5,10.9-4.5,13.4c-29,14.5-56.4,26.2-83.8,35.9C127.8,439.8,126.7,440,125.6,440z"/>
</g>
<g id="Path_9875">
	<path class="st0" d="M177.9,460.2c-3.7,0-7.3-2.1-9-5.7c-2.4-5-0.2-11,4.8-13.3c40.2-19,69.2-18.1,86.2,2.7
		c3.5,4.3,2.9,10.6-1.4,14.1c-4.3,3.5-10.6,2.9-14.1-1.4c-10.5-12.8-31.4-11.9-62.2,2.7C180.8,459.9,179.3,460.2,177.9,460.2z"/>
</g>
<g id="Path_9876">
	<path class="st0" d="M370.2,313.5c-0.8,0-1.7-0.1-2.6-0.3c-36-9.5-66.3-30.8-85.1-59.9c-3-4.6-1.7-10.8,3-13.8
		c4.6-3,10.8-1.7,13.8,3c16.4,25.3,41.8,43.1,73.4,51.4c5.3,1.4,8.5,6.9,7.1,12.2C378.6,310.5,374.6,313.5,370.2,313.5z"/>
</g>
<g id="Path_9877">
	<path class="st0" d="M351.6,353.9c-0.3,0-0.6,0-0.8,0c-21.3-1.8-41.4-9.3-60-22.5c-16.9-12-32.8-28.6-48.5-50.9
		c-3.2-4.5-2.1-10.7,2.4-13.9c4.5-3.2,10.7-2.1,13.9,2.4c29.3,41.4,59.2,62.1,93.9,65c5.5,0.5,9.6,5.3,9.1,10.8
		C361.1,350,356.8,353.9,351.6,353.9z"/>
</g>
<g id="Path_9878">
	<path class="st0" d="M331.4,397.8c-0.9,0-1.8-0.1-2.8-0.4c-36.7-10.5-69.9-29.4-98.5-56.3c-4-3.8-4.2-10.1-0.5-14.1
		c3.8-4,10.1-4.2,14.1-0.5c26.3,24.7,56.7,42,90.4,51.6c5.3,1.5,8.4,7.1,6.9,12.4C339.7,394.9,335.7,397.8,331.4,397.8z"/>
</g>
<g id="Ellipse_552">
	<path class="st0" d="M331.4,453.4c-70.6,0-128-57.4-128-128s57.4-128,128-128c70.6,0,128,57.4,128,128S401.9,453.4,331.4,453.4z
		 M331.4,227.4c-54,0-98,44-98,98s44,98,98,98c54,0,98-44,98-98S385.4,227.4,331.4,227.4z"/>
</g>
<g id="Line_344">
	
		<rect x="427.7" y="389.6" transform="matrix(0.7173 -0.6968 0.6968 0.7173 -175.0165 430.2441)" class="st0" width="30" height="82.3"/>
</g>
</svg>
