<?xml version="1.0" encoding="utf-8"?>
<!-- Generator: Adobe Illustrator 23.0.1, SVG Export Plug-In . SVG Version: 6.00 Build 0)  -->
<svg version="1.1" id="Layer_1" xmlns="http://www.w3.org/2000/svg" xmlns:xlink="http://www.w3.org/1999/xlink" x="0px" y="0px"
	 viewBox="0 0 527.6 133" style="enable-background:new 0 0 527.6 133;" xml:space="preserve">
<style type="text/css">
	.st0{fill:#0E4477;}
	.st1{fill:#B1CAC7;}
	.st2{opacity:0.83;}
	.st3{fill:#EFA876;}
	.st4{fill:#BC2D18;}
</style>
<g>
	<g>
		<path class="st0" d="M21.3,133c-9.5,0-17-3.8-21.3-10.7l4.6-3.7c3.4,6.3,9.3,9.6,17.1,9.6c8.5,0,13.3-3.3,13.3-8.9
			c0-4.1-2.7-6.7-8.1-7.9l-12-2.7c-8.4-1.8-12.7-6.1-12.7-12.6c0-8.5,7.8-14.7,18.5-14.7c8.5,0,14.7,3.3,19.1,10.2L35.5,95
			c-3.7-6.2-8.3-8.8-15.3-8.8c-7.8,0-12.4,3.4-12.4,9c0,4.5,2.7,7,8.9,8.5l11.1,2.5c8.8,2,12.8,5.8,12.8,12.6
			C40.5,127.3,32.8,133,21.3,133z"/>
		<path class="st0" d="M66.9,133c-3.2,0-10.6-1-10.6-9.9V98.9h-7.7v-4.3h7.7v-9.4l5.2-1.4v10.8h14.1v4.3H61.4v23.2
			c0,3.8,2.4,6.1,6.3,6.1c2.6,0,4.7-0.8,6.6-2.5l1.7,4.2C73.7,132,70.6,133,66.9,133z"/>
		<path class="st0" d="M85.7,132.3V94.6h4.1l1,7.6l0.7-1.6c2.1-4.5,6.1-6.8,11.9-6.8c0.9,0,2.5,0.1,3.7,0.6l-0.9,4.7
			c-1.1-0.3-2.2-0.5-4.3-0.5c-5.5,0-11,4.6-11,13.3v20.4H85.7z"/>
		<path class="st0" d="M131.7,133c-11.2,0-18.4-7.7-18.4-19.6s7.1-19.6,18-19.6c9.9,0,16.6,6.9,16.6,17.1c0,1.3-0.1,2.5-0.2,3.8
			h-29.3l0,0.5c0.6,8.4,5.5,13.4,13.1,13.4c5.2,0,8.9-1.9,11.4-5.9l4,2.4C143.9,130.2,138.5,133,131.7,133z M131.2,98.2
			c-6.7,0-11.4,4.3-12.5,11.4l-0.1,0.6h24.2l0-0.5C142.5,102.6,138.1,98.2,131.2,98.2z"/>
		<path class="st0" d="M170.5,133c-5.7,0-12.3-2.6-12.3-10c0-5.4,3.8-9.1,10.6-10.5l14.5-2.9v-1.9c0-6-3.5-9.6-9.4-9.6
			c-5.6,0-9.4,2.4-11.2,7.1l-4.2-2.6c2.2-5.6,8-9,15.5-9c9,0,14.4,4.8,14.4,12.7v18.7c0,2.1,1.2,3.3,3.4,3.3c0.7,0,1.6-0.1,2.3-0.2
			l-0.2,3.9c-0.9,0.4-2.2,0.6-3.5,0.6c-3.8,0-6.5-2-7.1-5.2l-0.2-1.2l-0.7,1C179.6,131.5,174.3,133,170.5,133z M171.5,116.2
			c-5.6,1.2-7.9,3.1-7.9,6.5c0,3.6,3.1,5.9,7.8,5.9c5.5,0,12-2.7,12-10.2v-4.7L171.5,116.2z"/>
		<path class="st0" d="M258,132.3v-23.6c0-6.6-3.5-10.4-9.6-10.4c-5.8,0-12,4.2-12,13.3v20.7h-5.2v-23.6c0-6.6-3.5-10.4-9.6-10.4
			c-5.8,0-12,4.3-12,13.9v20.2h-5.2V94.6h4.4l0.5,7.2l0.8-1.4c2.5-4.2,6.8-6.6,11.9-6.6c5.8,0,10.6,2.7,12.9,7.3l0.5,0.9l0.4-1
			c2.3-5,8.2-7.3,13-7.3c6.6,0,14.3,3.7,14.3,14.2v24.3H258z"/>
		<polygon class="st0" points="339.7,132.3 339.7,109.3 311,109.3 311,132.3 305.8,132.3 305.8,82.2 311,82.2 311,104.5 
			339.7,104.5 339.7,82.2 344.9,82.2 344.9,132.3 		"/>
		<path class="st0" d="M376.3,133c-11.1,0-18.2-7.7-18.2-19.6s7.2-19.6,18.2-19.6s18.2,7.7,18.2,19.6S387.4,133,376.3,133z
			 M376.3,98.1c-8,0-13,5.9-13,15.3c0,9.4,5,15.3,13,15.3s13-5.9,13-15.3C389.3,104,384.3,98.1,376.3,98.1z"/>
		<path class="st0" d="M420.7,133c-8.7,0-13.9-5.1-13.9-13.6V94.6h5.2v23.3c0,7.5,3.2,10.8,10.3,10.8c5.6,0,12.1-3.5,12.1-13.5V94.6
			h5.2v37.7h-4.4l-0.5-7l-0.8,1.4C431.3,130.9,427,133,420.7,133z"/>
		<path class="st0" d="M468.4,133c-7.4,0-13.7-3.2-17.1-8.6l4.4-3.2c2.5,4.7,7.1,7.3,13.1,7.3c5.6,0,9.2-2.4,9.2-6.2
			c0-2.9-1.8-4.7-5.4-5.4l-9.3-1.9c-6.8-1.4-10.1-4.7-10.1-10.1c0-6.4,6.1-11.1,14.4-11.1c7,0,12.3,2.8,14.9,7.9l-4.3,2.8
			c-2.1-4.7-6.8-6.3-10.6-6.3c-5.6,0-9.3,2.6-9.3,6.5c0,3,2,4.9,5.9,5.7l9.7,2c6.4,1.3,9.4,4.2,9.4,9.1
			C483.3,128.4,477.3,133,468.4,133z"/>
		<path class="st0" d="M511.4,133c-11.2,0-18.4-7.7-18.4-19.6s7.1-19.6,18-19.6c9.9,0,16.6,6.9,16.6,17.1c0,1.3-0.1,2.6-0.2,3.8
			h-29.3l0,0.5c0.6,8.4,5.5,13.4,13.1,13.4c5.2,0,8.9-1.9,11.4-5.9l4,2.4C523.6,130.2,518.2,133,511.4,133z M510.9,98.2
			c-6.7,0-11.4,4.3-12.5,11.4l-0.1,0.6h24.2l0-0.5C522.2,102.6,517.8,98.2,510.9,98.2z"/>
	</g>
	<g>
		<path class="st1" d="M7.1,56.1l-0.8-1.8C85,19.1,176.8-14.2,261,6.3c19.7,4.8,39.5,10.9,58.6,16.8c41.9,12.9,85.1,26.3,131.5,27.2
			c4.4,0.1,8.6,0.2,12.6,0.3c15.8,0.5,29.4,0.9,46.4-1.3l0.3,2c-17.2,2.2-30.9,1.8-46.8,1.3c-4-0.1-8.2-0.2-12.6-0.3
			C404.4,51.4,361,38,319,25c-19.1-5.9-38.9-12-58.5-16.8C176.9-12.1,85.5,21,7.1,56.1z"/>
	</g>
	<g class="st2">
		<path class="st3" d="M397.2,82.4c-7.6,0-15.3-0.4-23.1-1.3c-32.4-3.6-66.7-14.9-102-33.6c-66.4-35.1-164.6-64.7-255.2-6.8
			c-3.5,2.2-4.5,2.8-5.3,2.9l0-2c-0.1,0-0.1,0-0.1,0c0.5-0.1,2.3-1.3,4.3-2.5c10.5-6.7,38.3-24.5,81.7-30.8
			C151.9,0.4,211,13,273.1,45.8c64.1,33.8,123.1,43,175.4,27.3c44.4-13.3,65.8-39.6,66-39.9l1.6,1.3c-0.2,0.3-22.1,27-67,40.6
			C432.6,79.9,415.2,82.4,397.2,82.4z"/>
	</g>
	<g>
		<path class="st4" d="M203,53.3c-0.4,0-0.7,0-1.1,0C128.4,53.2,66.3,41.4,6.3,16.1l0.8-1.8c100.6,42.4,224.6,57.6,503-6.1l0.4,1.9
			C381.8,39.6,284.1,53.3,203,53.3z"/>
	</g>
</g>
</svg>
