<?xml version="1.0" encoding="utf-8"?>
<!-- Generator: Adobe Illustrator 23.0.1, SVG Export Plug-In . SVG Version: 6.00 Build 0)  -->
<svg version="1.1" id="Layer_1" xmlns="http://www.w3.org/2000/svg" xmlns:xlink="http://www.w3.org/1999/xlink" x="0px" y="0px"
	 viewBox="0 0 23.5 29.2" style="enable-background:new 0 0 23.5 29.2;" xml:space="preserve">
<style type="text/css">
	.st0{fill:#FFFFFF;}
</style>
<g id="mycases" transform="translate(0.75 0.75)">
	<g id="Path_12">
		<path class="st0" d="M8.2,8.8C8.2,8.8,8.2,8.8,8.2,8.8c-1.3,0-2.5-0.5-3.4-1.4C3.9,6.5,3.4,5.3,3.4,4c0-2.6,2.2-4.8,4.8-4.8
			c0,0,0,0,0,0C10.8-0.8,13,1.4,13,4v0C13,6.7,10.8,8.8,8.2,8.8z M8.2,0.7C8.2,0.7,8.2,0.7,8.2,0.7C6.4,0.7,4.9,2.2,4.9,4
			c0,0.9,0.3,1.7,1,2.3c0.6,0.6,1.4,1,2.3,1c0,0,0,0,0,0c1.8,0,3.3-1.5,3.3-3.3v0C11.5,2.2,10,0.7,8.2,0.7z"/>
	</g>
	<g id="Path_15">
		<path class="st0" d="M5.6,18.9h-6.4v-4.7c0-2.7,2.2-4.9,5-4.9h7.5c2.7,0,5,2.2,5,4.9h-1.5c0-1.9-1.5-3.4-3.5-3.4H4.2
			c-1.9,0-3.5,1.5-3.5,3.4v3.2h4.9V18.9z"/>
	</g>
	<g id="Group_7" transform="translate(7.673 16.029)">
		<g id="Path_13">
			<path class="st0" d="M13.2,12.4H1.1c-0.5,0-0.9-0.4-0.9-0.8V6.9h1.5v4h10.8v-4h1.5v4.6C14.1,12,13.7,12.4,13.2,12.4z"/>
		</g>
		<g id="Rectangle_6">
			<path class="st0" d="M10.7,2.7H3.6c-0.5,0-0.9-0.4-0.9-0.9V0.1c0-0.5,0.4-0.9,0.9-0.9h7.1c0.5,0,0.9,0.4,0.9,0.9v1.7
				C11.6,2.3,11.2,2.7,10.7,2.7z M4.2,1.2h5.9V0.8H4.2V1.2z"/>
		</g>
		<g id="Path_14">
			<path class="st0" d="M14.2,7.7h-2.9c-0.4,0-0.8-0.3-0.8-0.8s0.3-0.8,0.8-0.8h2.2V2.7H0.7v3.4h4.8c0.4,0,0.8,0.3,0.8,0.8
				S5.9,7.7,5.5,7.7H0.1c-0.5,0-0.9-0.4-0.9-0.9V2.1c0-0.5,0.4-0.8,0.9-0.8h14.1c0.5,0,0.8,0.4,0.8,0.8v4.7
				C15.1,7.3,14.7,7.7,14.2,7.7z"/>
		</g>
		<g id="Line_5">
			<rect x="8.8" y="6.2" class="st0" width="3.2" height="1.5"/>
		</g>
		<g id="Rectangle_7">
			<path class="st0" d="M6.3,9.2c-0.4,0-0.8-0.3-0.8-0.8l0-0.1l0-2.8C5.5,5,5.9,4.7,6.4,4.7h2.2C9,4.6,9.5,5,9.5,5.5l0,0.1l0,2.8
				C9.5,8.9,9,9.2,8.5,9.1L6.3,9.2C6.4,9.2,6.3,9.2,6.3,9.2z M6.4,7.6C6.3,7.6,6.3,7.7,6.4,7.6L6.4,7.6C6.4,7.7,6.4,7.6,6.4,7.6z
				 M7,6.2v1.5l1.1,0V6.2L7,6.2z M8.6,7.6C8.6,7.6,8.5,7.6,8.6,7.6L8.6,7.6C8.6,7.6,8.6,7.6,8.6,7.6z M8.6,6.2c0,0,0.1,0,0.1,0H8.6z
				"/>
		</g>
	</g>
</g>
</svg>
