<svg xmlns="http://www.w3.org/2000/svg" width="23.5" height="29.172" viewBox="0 0 23.5 29.172">
  <g id="mycases" transform="translate(0.75 0.75)">
    <path id="Path_12" data-name="Path 12" d="M15.959,5.043A4.041,4.041,0,1,1,11.917,1,4.041,4.041,0,0,1,15.959,5.043Z" transform="translate(-3.747 -1.002)" fill="none" stroke="#fff" stroke-miterlimit="10" stroke-width="1.5"/>
    <path id="Path_15" data-name="Path 15" d="M6.622,25.8H1V21.805a4.2,4.2,0,0,1,4.2-4.2h7.5a4.2,4.2,0,0,1,4.2,4.2h0" transform="translate(-1 -7.636)" fill="none" stroke="#fff" stroke-width="1.5"/>
    <g id="Group_7" data-name="Group 7" transform="translate(7.673 16.029)">
      <path id="Path_13" data-name="Path 13" d="M27.772,39.209v4.628a.1.1,0,0,1-.1.1H15.522a.1.1,0,0,1-.1-.1h0V39.209" transform="translate(-14.434 -32.293)" fill="none" stroke="#fff" stroke-miterlimit="10" stroke-width="1.5"/>
      <path id="Rectangle_6" data-name="Rectangle 6" d="M19.672,27.693h7.136a.137.137,0,0,1,.137.137h0v1.7a.137.137,0,0,1-.136.137H19.672a.137.137,0,0,1-.137-.137v-1.7a.137.137,0,0,1,.137-.137Z" transform="translate(-16.077 -27.693)" fill="none" stroke="#fff" stroke-miterlimit="10" stroke-width="1.5"/>
      <path id="Path_14" data-name="Path 14" d="M19.291,35.923H13.876a.1.1,0,0,1-.1-.1h0V31.082a.1.1,0,0,1,.1-.1H28a.1.1,0,0,1,.1.1v4.742a.1.1,0,0,1-.1.1H25.141" transform="translate(-13.777 -29.007)" fill="none" stroke="#fff" stroke-linecap="round" stroke-linejoin="round" stroke-width="1.5"/>
      <line id="Line_5" data-name="Line 5" x1="3.181" transform="translate(8.827 6.916)" fill="none" stroke="#fff" stroke-miterlimit="10" stroke-width="1.5"/>
      <path id="Rectangle_7" data-name="Rectangle 7" d="M18.893,36.742h2.243a.163.163,0,0,1,.18.137v2.689a.164.164,0,0,1-.18.138H18.893a.164.164,0,0,1-.181-.138V36.88A.164.164,0,0,1,18.893,36.742Z" transform="translate(-12.512 -31.308)" fill="none" stroke="#fff" stroke-miterlimit="10" stroke-width="1.5"/>
    </g>
  </g>
</svg>
