<?xml version="1.0" encoding="utf-8"?>
<!-- Generator: Adobe Illustrator 23.0.1, SVG Export Plug-In . SVG Version: 6.00 Build 0)  -->
<svg version="1.1" id="Layer_1" xmlns="http://www.w3.org/2000/svg" xmlns:xlink="http://www.w3.org/1999/xlink" x="0px" y="0px"
	 viewBox="0 0 25 21.5" style="enable-background:new 0 0 25 21.5;" xml:space="preserve">
<style type="text/css">
	.st0{fill:#FFFFFF;}
</style>
<g id="mycases" transform="translate(0.75 0.75)">
	<rect x="16.1" y="13.8" class="st0" width="7.5" height="1.6"/>
	
		<rect x="16.1" y="13.9" transform="matrix(-1.836970e-16 1 -1 -1.836970e-16 34.5137 -5.151)" class="st0" width="7.5" height="1.6"/>
	<path class="st0" d="M17.6,11.3V5.9c0-0.5-0.3-0.9-0.9-0.9h-3V3.6c0-0.6-0.5-1-1-1H4.4c-0.6,0-1,0.5-1,1V5h-3c-0.6,0-1,0.3-1,0.9
		v5.4c0,0.6,0.5,1,1,1h0.1v4.5c0,0.5,0.5,0.9,1,0.9h13.9c0.6,0,1-0.5,0.9-1V16H2.2v-3.7h4.4v0.8c0,0.6,0.5,0.9,0.9,0.9l2.5-0.1
		c0.6,0.1,1.2-0.2,1.2-0.8v-0.8h3.5v0.8h1.7v-0.8h0.2C17.2,12.3,17.7,11.9,17.6,11.3z M5.1,4.4h6.8v0.5H5.1V4.4z M7.6,12.2
		C7.5,12.3,7.5,12.2,7.6,12.2L7.6,12.2z M9.6,12.3H8.3v-1.7h1.3V12.3z M15.8,10.5h-2.5c-0.2,0-0.3,0-0.5,0.1h-1.6V9.8
		c0-0.6-0.6-1-1-0.9H7.6c-0.6,0-1,0.4-1,0.9v0.7H1.1V6.6h14.7V10.5z"/>
</g>
</svg>
