<?xml version="1.0" encoding="utf-8"?>
<!-- Generator: Adobe Illustrator 23.0.1, SVG Export Plug-In . SVG Version: 6.00 Build 0)  -->
<svg version="1.1" id="Layer_1" xmlns="http://www.w3.org/2000/svg" xmlns:xlink="http://www.w3.org/1999/xlink" x="0px" y="0px"
	 viewBox="0 0 25 21.5" style="enable-background:new 0 0 25 21.5;" xml:space="preserve">

<g id="newuser" transform="translate(0.75 0.75)">
	<g id="Path_12">
		<path class="st0" d="M8.3,8.9L8.3,8.9C7,8.9,5.8,8.4,4.9,7.5S3.5,5.4,3.5,4.1c0-2.6,2.2-4.8,4.8-4.8l0,0c2.6,0,4.8,2.2,4.8,4.8
			l0,0C13.1,6.8,10.9,8.9,8.3,8.9z M8.3,0.8L8.3,0.8C6.5,0.8,5,2.3,5,4.1C5,5,5.3,5.8,6,6.4c0.6,0.6,1.4,1,2.3,1l0,0
			c1.8,0,3.3-1.5,3.3-3.3l0,0C11.6,2.3,10.1,0.8,8.3,0.8z"/>
	</g>
	<g id="Path_15">
		<path class="st0" d="M15.1,19H-0.8v-4.7c0-2.7,2.2-4.9,5-4.9h7.5c2.7,0,5,2.2,5,4.9h-1.5c0-1.9-1.5-3.4-3.5-3.4H4.3
			c-1.9,0-3.5,1.5-3.5,3.4v3.2h14.4L15.1,19L15.1,19z"/>
	</g>
	<rect x="15.4" y="15.2" class="st0" width="8.9" height="1.9"/>
	<rect x="18.9" y="11.8" class="st0" width="1.9" height="8.9"/>
</g>
</svg>
