<svg id="reports" xmlns="http://www.w3.org/2000/svg" width="22" height="17.454" viewBox="0 0 22 17.454">
  <path id="Path_18" data-name="Path 18" d="M264.255,1576.705a.586.586,0,0,0-.438-.2H261.14v-11.283a1.291,1.291,0,0,0-1.29-1.29H245.622a.848.848,0,0,0-.1.007.542.542,0,0,0-.079-.007h-.031a3.235,3.235,0,0,0-2.978,2.974.658.658,0,0,0,.18.481.624.624,0,0,0,.454.195h1.7v11.443a2.386,2.386,0,0,0,1.917,2.336l.125.025.122-.034a4.093,4.093,0,0,0,.476-.166h13.111a4.151,4.151,0,0,0,3.914-3.945A.693.693,0,0,0,264.255,1576.705Zm-20.692-10.185a2.239,2.239,0,0,1,1.2-1.341v1.341Zm2.262.416v-1.941h14.025a.228.228,0,0,1,.227.227v11.283H249.814a.584.584,0,0,0-.427.189.95.95,0,0,0-.386.686,3.374,3.374,0,0,1-2.235,2.909,1.315,1.315,0,0,1-.942-1.264Zm14.687,13.187h-11.4a5.369,5.369,0,0,0,1.105-2.541h10.92v-.014h2.16A3.008,3.008,0,0,1,260.512,1580.123Z" transform="translate(-242.429 -1563.932)" fill="#fff"/>
  <path id="Path_20" data-name="Path 20" d="M318.393,1603.256H328a.726.726,0,1,0,0-1.435h-9.606a.726.726,0,1,0,0,1.435Z" transform="translate(-312.357 -1597.874)" fill="#fff"/>
  <path id="Path_21" data-name="Path 21" d="M318.393,1630.521H328a.726.726,0,1,0,0-1.435h-9.606a.726.726,0,1,0,0,1.435Z" transform="translate(-312.357 -1622.298)" fill="#fff"/>
  <path id="Path_23" data-name="Path 23" d="M318.393,1657.882H328a.726.726,0,1,0,0-1.435h-9.606a.726.726,0,1,0,0,1.435Z" transform="translate(-312.357 -1646.809)" fill="#fff"/>
</svg>
