<svg id="reviews" xmlns="http://www.w3.org/2000/svg" width="22" height="22.143" viewBox="0 0 22 22.143">
  <g id="Group_16" data-name="Group 16">
    <g id="Group_12" data-name="Group 12">
      <path id="Path_25" data-name="Path 25" d="M525.718,377.309h-4.1a2.01,2.01,0,0,1-2.008-2.008V361.4a2.01,2.01,0,0,1,2.008-2.008h11.494a2.01,2.01,0,0,1,2.008,2.008v3.94a.631.631,0,0,1-1.261,0V361.4a.747.747,0,0,0-.746-.746H521.62a.747.747,0,0,0-.747.746v13.9a.748.748,0,0,0,.747.746h4.1a.631.631,0,0,1,0,1.261Z" transform="translate(-519.612 -359.396)" fill="#fff"/>
    </g>
    <g id="Group_13" data-name="Group 13" transform="translate(2.889 4.688)">
      <path id="Path_26" data-name="Path 26" d="M535.912,371.808h-8.8a.631.631,0,1,1,0-1.261h8.8a.631.631,0,1,1,0,1.261Z" transform="translate(-526.483 -370.547)" fill="#fff"/>
    </g>
    <g id="Group_14" data-name="Group 14" transform="translate(2.889 8.733)">
      <path id="Path_27" data-name="Path 27" d="M531.708,381.427h-4.594a.631.631,0,1,1,0-1.261h4.594a.631.631,0,1,1,0,1.261Z" transform="translate(-526.483 -380.166)" fill="#fff"/>
    </g>
    <g id="Group_15" data-name="Group 15" transform="translate(2.889 12.672)">
      <path id="Path_28" data-name="Path 28" d="M530.026,390.8h-2.912a.631.631,0,1,1,0-1.261h2.912a.631.631,0,0,1,0,1.261Z" transform="translate(-526.483 -389.535)" fill="#fff"/>
    </g>
  </g>
  <g id="Group_17" data-name="Group 17" transform="translate(18.061 18.203)">
    <rect id="Rectangle_13" data-name="Rectangle 13" width="1.261" height="4.31" transform="translate(0 0.892) rotate(-44.998)" fill="#fff"/>
  </g>
  <g id="Group_18" data-name="Group 18" transform="translate(7.612 8.229)">
    <path id="Path_29" data-name="Path 29" d="M544.278,392.094a6.563,6.563,0,1,1,6.563-6.563A6.57,6.57,0,0,1,544.278,392.094Zm0-11.864a5.3,5.3,0,1,0,5.3,5.3A5.307,5.307,0,0,0,544.278,380.23Z" transform="translate(-537.716 -378.969)" fill="#fff"/>
  </g>
</svg>
