<?xml version="1.0" encoding="utf-8"?>
<!-- Generator: Adobe Illustrator 23.0.1, SVG Export Plug-In . SVG Version: 6.00 Build 0)  -->
<svg version="1.1" id="Layer_1" xmlns="http://www.w3.org/2000/svg" xmlns:xlink="http://www.w3.org/1999/xlink" x="0px" y="0px"
	 viewBox="0 0 31.3 25.2" style="enable-background:new 0 0 31.3 25.2;" xml:space="preserve">
<style type="text/css">
	.st0{fill:#FFFFFF;}
</style>
<g id="mycases" transform="translate(0.75 0.75)">
	<g id="Path_12">
		<path class="st0" d="M8.3,8.9L8.3,8.9c-1.3,0-2.5-0.5-3.4-1.4S3.5,5.4,3.5,4.1c0-2.6,2.2-4.8,4.8-4.8l0,0c2.6,0,4.8,2.2,4.8,4.8
			l0,0C13.1,6.8,10.9,8.9,8.3,8.9z M8.3,0.8L8.3,0.8C6.5,0.8,5,2.3,5,4.1C5,5,5.3,5.8,6,6.4c0.6,0.6,1.4,1,2.3,1l0,0
			c1.8,0,3.3-1.5,3.3-3.3l0,0C11.6,2.3,10.1,0.8,8.3,0.8z"/>
	</g>
	<g id="Path_15">
		<path class="st0" d="M11.6,19H-0.8v-4.7c0-2.7,2.2-4.9,5-4.9h7.5c2.7,0,5,2.2,5,4.9h-1.5c0-1.9-1.5-3.4-3.5-3.4H4.3
			c-1.9,0-3.5,1.5-3.5,3.4v3.2h10.9V19z"/>
	</g>
	<g id="Path_12_1_">
		<path class="st0" d="M22,14.3L22,14.3c-1.3,0-2.5-0.5-3.4-1.4c-0.9-0.9-1.4-2.1-1.4-3.4c0-2.6,2.2-4.8,4.8-4.8l0,0
			c2.6,0,4.8,2.2,4.8,4.8l0,0C26.9,12.2,24.7,14.3,22,14.3z M22,6.2L22,6.2c-1.8,0-3.3,1.5-3.3,3.3c0,0.9,0.3,1.7,1,2.3
			c0.6,0.6,1.4,1,2.3,1l0,0c1.8,0,3.3-1.5,3.3-3.3l0,0C25.4,7.7,23.9,6.2,22,6.2z"/>
	</g>
	<path class="st0" d="M25.5,14.8H18c-2.8,0-5,2.2-5,4.9v4.7h6.4v-1.5h-4.9v-3.2c0-1.9,1.6-3.4,3.5-3.4h7.5c1.9,0,3.5,1.5,3.5,3.4
		v3.2h-4.9v1.5h6.4v-4.7C30.5,17,28.3,14.8,25.5,14.8z"/>
</g>
</svg>
